<?xml version="1.0" standalone="no"?>
<!DOCTYPE svg PUBLIC "-//W3C//DTD SVG 20010904//EN"
 "http://www.w3.org/TR/2001/REC-SVG-20010904/DTD/svg10.dtd">
<svg version="1.0" xmlns="http://www.w3.org/2000/svg"
 width="1024.000000pt" height="1024.000000pt" viewBox="0 0 1024.000000 1024.000000"
 preserveAspectRatio="xMidYMid meet">

<g transform="translate(0.000000,1024.000000) scale(0.100000,-0.100000)"
fill="#000000" stroke="none">
<path d="M2548 6810 c-164 -29 -337 -128 -421 -239 -92 -121 -139 -263 -140
-421 -2 -160 41 -276 136 -378 90 -95 223 -170 437 -246 115 -41 252 -112 288
-149 61 -62 52 -136 -20 -173 -25 -13 -50 -15 -113 -12 -123 8 -239 61 -383
176 -70 56 -90 62 -114 35 -40 -47 -248 -382 -248 -401 0 -42 167 -158 316
-219 131 -53 254 -76 414 -76 203 0 325 38 466 145 136 102 243 304 244 458 0
41 6 51 68 122 37 42 69 77 72 77 3 1 5 -168 5 -375 l0 -376 24 -19 c21 -17
41 -19 232 -19 211 0 249 6 266 39 4 9 10 199 13 422 l5 406 27 40 c37 56 86
78 174 78 60 0 77 -4 111 -27 24 -16 49 -44 62 -70 20 -43 21 -57 21 -437 0
-390 3 -422 34 -443 6 -4 104 -8 217 -8 182 0 209 2 228 18 22 17 22 19 24
512 2 538 1 548 -54 667 -79 168 -231 277 -425 304 -133 18 -288 -17 -379 -87
l-45 -34 0 324 c0 262 -3 326 -14 335 -9 8 -88 11 -267 9 l-254 -3 -5 -421
c-4 -354 -7 -424 -20 -440 -50 -64 -118 -145 -153 -183 l-40 -43 -38 44 c-86
101 -225 183 -464 273 -235 89 -295 130 -295 204 0 71 44 101 145 101 103 0
232 -52 352 -141 62 -47 53 -55 210 186 113 174 126 200 113 225 -16 29 -171
128 -261 166 -138 58 -219 76 -369 79 -74 2 -156 0 -182 -5z m202 -144 c60
-10 66 -14 82 -46 14 -28 16 -43 8 -71 -20 -70 -25 -73 -126 -59 -118 15 -120
16 -134 49 -34 84 -229 27 -287 -83 -14 -27 -14 -31 2 -42 16 -12 17 -25 12
-103 -6 -100 -20 -131 -57 -131 -46 0 -53 12 -51 91 2 96 10 136 27 143 8 3
14 12 14 21 0 30 39 93 80 127 49 43 124 68 199 68 31 0 62 5 69 12 9 9 12 -2
13 -52 l1 -65 15 34 c14 34 14 67 -2 104 -6 15 -2 17 31 16 22 -1 68 -6 104
-13z m1080 -708 c28 -30 25 -70 -7 -110 -33 -40 -186 -210 -269 -298 -34 -36
-84 -91 -113 -123 -28 -31 -51 -50 -51 -42 0 8 5 15 12 15 6 0 3 10 -8 22 -13
16 -14 19 -2 10 22 -17 35 3 17 26 -10 12 -7 11 10 -3 14 -11 21 -14 17 -7 -5
8 2 16 18 22 14 5 26 15 26 22 0 9 -3 8 -10 -2 -5 -8 -10 -11 -10 -7 0 4 -9 3
-20 -3 -19 -10 -20 -10 -8 9 6 11 17 17 23 13 5 -3 4 2 -3 10 -17 21 -43 13
-35 -10 4 -14 3 -14 -5 -3 -10 15 5 34 222 276 49 55 107 123 130 152 22 29
42 53 43 53 1 0 11 -10 23 -22z m-96 -13 c-4 -8 -10 -12 -15 -9 -5 3 -9 0 -9
-7 0 -7 -3 -9 -7 -5 -5 4 1 14 11 22 25 18 27 18 20 -1z m-62 -42 c-6 -2 -10
-9 -7 -14 3 -4 -21 -22 -54 -39 -69 -34 -72 -35 -65 -15 9 22 72 58 90 51 8
-3 13 -2 9 3 -5 9 11 19 30 19 6 0 4 -2 -3 -5z m-142 -46 c0 -2 -10 -12 -22
-23 l-23 -19 19 23 c18 21 26 27 26 19z m1368 -189 c9 -9 12 -109 12 -390 l0
-378 -120 0 -120 0 -2 338 c-1 185 -2 344 -4 352 -1 8 -2 26 -3 38 -1 15 -9
26 -22 29 -16 4 -17 8 -7 14 21 14 252 11 266 -3z m-880 -156 c2 -40 -2 -80
-7 -90 -10 -16 -10 -16 -11 1 0 9 -6 17 -14 17 -8 0 -21 6 -28 13 -7 7 -25 21
-40 31 -16 10 -28 25 -28 33 0 8 -4 12 -9 8 -6 -3 -13 0 -18 7 -4 7 -14 13
-20 14 -43 3 -42 8 2 13 33 4 49 10 47 19 -2 10 13 12 60 10 l63 -3 3 -73z
m-628 -26 c0 -2 -8 -10 -17 -17 -16 -13 -17 -12 -4 4 13 16 21 21 21 13z m-90
-99 c0 -2 -12 -14 -27 -28 l-28 -24 24 28 c23 25 31 32 31 24z m-248 -74 c-11
-16 -20 -32 -20 -38 1 -5 -11 -16 -25 -23 -16 -8 -24 -18 -20 -27 3 -8 7 -15
10 -15 3 0 2 7 -1 16 -4 10 -1 14 6 12 7 -3 13 -10 13 -15 0 -6 4 -15 9 -20 5
-4 6 -3 2 4 -3 6 -2 14 4 18 5 3 10 1 10 -5 0 -6 12 -3 27 7 21 14 25 15 19 3
-18 -31 -39 -49 -49 -43 -6 3 -7 1 -3 -5 4 -6 -42 -67 -106 -139 -97 -110
-122 -133 -178 -160 -114 -56 -120 -54 -67 15 75 97 374 440 385 442 2 0 -5
-12 -16 -27z m98 -18 c-24 -25 -45 -45 -45 -45 -1 0 -2 7 -2 15 0 8 3 12 7 10
4 -2 22 11 40 30 19 19 36 35 39 35 3 0 -15 -20 -39 -45z m91 22 c-6 -8 -7
-17 -3 -21 4 -4 0 -6 -8 -4 -10 2 -14 -4 -12 -17 2 -15 0 -17 -6 -6 -5 7 -12
9 -15 4 -3 -5 5 -22 17 -38 l24 -30 -45 -57 c-25 -32 -50 -55 -56 -51 -5 3 -7
2 -4 -4 4 -6 -5 -21 -18 -33 -14 -13 -25 -20 -25 -15 0 4 -8 1 -18 -8 -28 -25
-49 -6 -34 30 11 24 10 26 -1 11 -8 -10 -16 -15 -19 -12 -3 2 -3 -7 -1 -21 3
-14 12 -25 19 -25 8 0 14 -5 14 -11 0 -6 9 -1 20 12 10 13 19 20 19 14 0 -5
-25 -37 -56 -70 -31 -33 -47 -46 -37 -30 10 17 27 37 37 47 11 10 14 19 7 23
-5 3 -13 -1 -16 -9 -8 -20 -20 -20 -27 -2 -4 10 -1 13 9 9 7 -3 14 0 14 6 0 6
-4 11 -10 11 -5 0 -6 8 -3 18 6 15 5 16 -13 2 -18 -14 -18 -14 -5 5 33 45 75
84 84 78 6 -3 7 -1 3 6 -4 7 27 49 80 106 48 52 89 95 92 95 2 0 -1 -6 -7 -13z
m45 -49 c3 -4 -1 -5 -10 -4 -8 1 -18 5 -22 8 -3 4 1 5 10 4 8 -1 18 -5 22 -8z
m741 -230 c-1 -46 -3 -9 -3 82 0 91 2 128 3 83 2 -46 2 -120 0 -165z m-786
195 c13 -16 12 -17 -3 -4 -10 7 -18 15 -18 17 0 8 8 3 21 -13z m39 11 c0 -8
-19 -13 -24 -6 -3 5 1 9 9 9 8 0 15 -2 15 -3z m-327 -248 c-10 -13 -20 -22
-22 -20 -4 4 29 44 36 44 2 0 -4 -11 -14 -24z m1077 -140 c0 -84 -1 -85 -200
-82 -138 1 -173 4 -180 16 -11 17 -13 103 -3 113 3 4 91 7 195 7 l188 0 0 -54z"/>
<path d="M2223 6199 c10 -6 23 -6 33 -1 12 7 8 9 -18 10 -26 1 -30 -1 -15 -9z"/>
<path d="M4717 5664 c-15 -16 -5 -24 29 -24 24 0 34 4 32 13 -5 13 -50 22 -61
11z"/>
<path d="M3160 5219 c-14 -18 -29 -39 -33 -48 -5 -9 1 -4 13 12 12 15 28 27
36 27 8 0 14 2 14 4 0 2 3 11 6 20 10 26 -9 18 -36 -15z"/>
<path d="M3196 5214 c-9 -23 8 -38 23 -21 9 11 8 17 -3 26 -11 9 -15 8 -20 -5z"/>
<path d="M3174 5186 c4 -11 -1 -28 -11 -40 -17 -21 -17 -21 6 0 19 18 21 25
11 40 -11 18 -11 18 -6 0z"/>
<path d="M3086 5075 c4 -8 8 -15 10 -15 2 0 4 7 4 15 0 8 -4 15 -10 15 -5 0
-7 -7 -4 -15z"/>
<path d="M3820 4855 c-14 -17 -7 -43 15 -51 15 -6 45 11 45 27 0 4 -7 15 -16
23 -19 20 -28 20 -44 1z"/>
<path d="M6873 6763 c-10 -4 -13 -215 -13 -1007 0 -959 1 -1004 18 -1019 16
-15 49 -17 248 -17 166 0 233 3 242 12 9 9 12 105 12 367 1 196 5 387 9 424
12 90 44 137 114 167 117 51 243 -8 277 -129 6 -21 10 -193 10 -418 0 -370 1
-384 20 -403 19 -19 33 -20 233 -20 202 0 215 1 232 20 18 20 19 49 19 508 0
432 -2 494 -18 552 -67 248 -253 406 -501 426 -126 10 -260 -28 -362 -102
l-23 -16 0 319 c0 235 -3 322 -12 331 -9 9 -78 12 -252 11 -133 0 -247 -3
-253 -6z m177 -992 c0 -43 -2 -80 -5 -83 -3 -2 -17 -3 -32 -1 -28 5 -28 5 -28
83 0 43 3 76 8 73 4 -2 7 0 7 5 0 5 11 7 25 4 24 -4 25 -7 25 -81z m58 10 c2
-61 0 -75 -15 -86 -10 -7 -21 -11 -25 -9 -10 6 -10 158 -1 168 4 4 14 5 23 4
11 -3 16 -20 18 -77z m-171 -8 c-3 -10 -5 -4 -5 12 0 17 2 24 5 18 2 -7 2 -21
0 -30z m279 -159 c-2 -25 24 -29 31 -5 7 26 23 28 23 2 0 -11 5 -23 10 -26 25
-16 -29 -111 -57 -101 -7 3 -13 1 -13 -4 0 -6 -6 -10 -12 -10 -7 1 -2 10 11
20 14 12 21 26 17 35 -3 9 -2 13 4 10 6 -3 10 -2 10 4 0 5 2 16 5 23 4 9 -2
14 -15 14 -11 0 -20 -4 -20 -8 0 -4 6 -8 13 -8 8 0 8 -3 1 -8 -18 -13 -54 -79
-46 -87 4 -4 -4 -4 -17 0 -16 5 -21 4 -17 -4 5 -7 -3 -11 -23 -11 -16 0 -33 5
-36 10 -3 6 1 10 10 10 25 0 92 37 99 55 3 9 6 37 6 61 0 24 4 44 9 44 5 0 8
-7 7 -16z m992 -116 c9 -9 12 -101 12 -353 0 -292 -2 -344 -16 -363 -14 -21
-22 -22 -160 -22 -131 0 -146 2 -164 20 -19 19 -20 33 -20 355 0 250 3 340 12
355 12 19 24 20 168 20 108 0 160 -4 168 -12z m-1158 -138 c0 -63 -3 -80 -14
-80 -8 0 -17 -8 -19 -17 -3 -10 -5 26 -6 80 -1 91 0 97 19 97 18 0 20 -7 20
-80z m-33 -212 c-2 -18 -4 -4 -4 32 0 36 2 50 4 33 2 -18 2 -48 0 -65z m0
-125 c-2 -16 -4 -3 -4 27 0 30 2 43 4 28 2 -16 2 -40 0 -55z m153 -96 l125 -3
-126 -2 c-120 -2 -127 -1 -145 21 -19 22 -19 22 1 5 17 -14 46 -18 145 -21z
m130 -74 c0 -10 -228 -9 -237 1 -3 3 48 6 115 6 67 0 122 -3 122 -7z m-10 -62
c0 -10 -59 -21 -122 -21 -47 0 -65 14 -30 23 32 9 152 7 152 -2z m-217 -18
c-13 -2 -35 -2 -50 0 -16 2 -5 4 22 4 28 0 40 -2 28 -4z"/>
<path d="M7986 5491 c5 -5 29 -5 54 -1 l45 7 -54 2 c-33 0 -51 -3 -45 -8z"/>
<path d="M7880 5135 l0 -335 160 0 160 0 -2 333 -3 332 -157 3 -158 3 0 -336z"/>
<path d="M8028 4783 c7 -3 16 -2 19 1 4 3 -2 6 -13 5 -11 0 -14 -3 -6 -6z"/>
<path d="M5610 6205 c-153 -35 -297 -139 -378 -274 -88 -148 -118 -300 -109
-546 6 -167 18 -223 73 -334 44 -89 159 -211 244 -258 215 -121 488 -104 692
42 l48 35 0 -59 c0 -93 -7 -91 261 -91 216 0 230 1 249 20 20 20 20 33 20 730
0 691 0 710 -19 720 -12 6 -110 10 -250 10 -272 0 -261 4 -261 -102 l0 -71
-43 40 c-132 121 -349 178 -527 138z m405 -494 c99 -45 155 -125 163 -232 6
-93 -11 -149 -65 -209 -61 -68 -120 -94 -208 -94 -203 1 -331 178 -269 372 23
70 63 115 136 151 51 26 73 31 132 31 47 0 85 -7 111 -19z m-664 -200 c21 -17
26 -18 40 -5 9 8 33 17 52 21 31 5 40 1 67 -25 62 -63 26 -162 -60 -162 l-40
0 0 -160 0 -160 -30 0 -30 0 0 155 c0 152 0 155 -22 159 -13 3 -35 7 -50 10
-34 8 -64 39 -71 74 -6 33 15 86 40 101 29 17 79 13 104 -8z m1269 -11 c19
-19 20 -33 20 -363 0 -280 -3 -347 -14 -363 -13 -17 -29 -19 -137 -22 -140 -4
-202 3 -224 24 -23 23 -22 689 1 722 15 21 21 22 175 22 146 0 161 -2 179 -20z"/>
<path d="M5234 5449 c-3 -6 -1 -16 5 -22 8 -8 11 -5 11 11 0 24 -5 28 -16 11z"/>
<path d="M5460 5439 c0 -11 5 -17 10 -14 6 3 10 13 10 21 0 8 -4 14 -10 14 -5
0 -10 -9 -10 -21z"/>
<path d="M5291 5434 c0 -11 3 -14 6 -6 3 7 2 16 -1 19 -3 4 -6 -2 -5 -13z"/>
<path d="M6428 5503 c7 -3 16 -2 19 1 4 3 -2 6 -13 5 -11 0 -14 -3 -6 -6z"/>
<path d="M6307 5474 c-4 -4 -7 -24 -7 -45 0 -49 8 -51 160 -47 l115 3 0 45 0
45 -131 3 c-71 1 -133 -1 -137 -4z"/>
<path d="M6413 4818 c2 -7 14 -13 27 -13 13 0 25 6 28 13 2 8 -7 12 -28 12
-21 0 -30 -4 -27 -12z"/>
<path d="M3740 4559 c-167 -28 -308 -158 -366 -336 -24 -73 -30 -309 -10 -401
52 -248 230 -391 488 -392 313 0 501 193 516 531 9 206 -40 359 -149 468 -115
115 -286 162 -479 130z m202 -305 c64 -33 100 -123 100 -254 0 -120 -27 -197
-85 -244 -33 -26 -47 -31 -95 -31 -80 0 -126 30 -161 104 -24 51 -26 67 -26
176 0 114 2 123 29 172 16 29 41 60 55 70 50 33 126 35 183 7z"/>
<path d="M7823 4561 c-86 -14 -153 -43 -205 -90 -71 -63 -100 -127 -106 -227
-6 -107 14 -175 69 -238 51 -58 96 -84 231 -134 157 -59 187 -86 149 -133 -36
-44 -171 -34 -309 23 -40 16 -79 28 -86 25 -14 -6 -53 -150 -63 -238 -5 -44
-4 -48 23 -62 92 -47 374 -74 493 -47 152 34 243 124 271 270 22 116 -12 231
-90 304 -56 53 -94 73 -220 116 -52 18 -107 38 -122 46 -48 25 -49 88 -1 100
46 12 147 -3 213 -31 36 -15 79 -29 96 -32 29 -4 33 -2 43 29 13 41 51 213 51
232 0 17 -78 51 -162 71 -82 19 -209 26 -275 16z"/>
<path d="M1972 4538 c-9 -9 -12 -141 -12 -534 0 -287 3 -529 6 -538 5 -14 28
-16 145 -16 128 0 139 1 149 20 7 13 10 102 8 255 -2 129 -1 235 2 235 3 0 11
-12 17 -27 46 -115 198 -451 211 -465 12 -15 32 -18 103 -18 l89 0 19 38 c10
20 58 129 106 242 48 113 92 216 99 230 9 20 12 -32 16 -240 l5 -265 137 -3
c111 -2 139 0 151 13 14 13 15 78 10 538 -2 287 -6 528 -9 535 -3 10 -46 12
-191 10 l-188 -3 -39 -90 c-21 -49 -74 -175 -118 -280 -43 -104 -83 -193 -87
-198 -4 -4 -61 115 -125 265 -65 150 -125 281 -134 291 -13 15 -36 17 -187 17
-120 0 -175 -4 -183 -12z"/>
<path d="M4487 4544 c-4 -4 -7 -247 -7 -539 0 -453 2 -534 14 -545 11 -9 89
-11 303 -8 274 4 291 5 347 27 123 49 190 153 189 293 0 106 -38 177 -118 224
l-45 26 41 30 c59 43 89 112 89 208 0 127 -60 218 -176 265 -44 17 -79 20
-339 23 -160 2 -294 0 -298 -4z m482 -278 c30 -28 29 -89 -4 -121 -21 -22 -33
-25 -100 -25 l-75 0 0 78 c0 43 3 82 8 86 4 4 39 6 79 4 52 -2 77 -8 92 -22z
m30 -400 c15 -14 21 -31 21 -60 0 -71 -25 -86 -144 -86 l-86 0 0 78 c0 43 3
82 8 86 4 4 46 6 93 4 68 -2 91 -7 108 -22z"/>
<path d="M5447 4544 c-4 -4 -7 -246 -7 -539 0 -400 3 -534 12 -543 14 -14 265
-17 286 -4 10 7 12 123 10 548 l-3 539 -146 3 c-80 1 -148 -1 -152 -4z"/>
<path d="M5907 4543 c-4 -3 -7 -245 -7 -538 0 -400 3 -534 12 -543 14 -14 644
-17 666 -4 9 7 12 42 10 143 l-3 134 -180 6 c-99 3 -181 6 -182 7 -2 1 -3 177
-3 390 0 288 -3 391 -12 400 -13 13 -289 18 -301 5z"/>
<path d="M6697 4543 c-4 -3 -7 -245 -7 -538 0 -400 3 -534 12 -543 17 -17 679
-17 696 0 15 15 17 254 2 263 -6 4 -89 6 -184 5 -95 0 -180 2 -189 6 -13 5
-17 20 -17 70 l0 64 156 0 c88 0 164 4 175 10 17 10 19 22 19 118 0 71 -4 112
-12 120 -8 8 -62 12 -175 12 l-163 0 0 65 0 65 184 0 c144 0 186 3 195 14 8 9
11 56 9 142 l-3 129 -346 3 c-190 1 -348 -1 -352 -5z"/>
</g>
</svg>
