<?xml version="1.0" standalone="no"?>
<!DOCTYPE svg PUBLIC "-//W3C//DTD SVG 20010904//EN"
 "http://www.w3.org/TR/2001/REC-SVG-20010904/DTD/svg10.dtd">
<svg version="1.0" xmlns="http://www.w3.org/2000/svg"
 width="1024.000000pt" height="1024.000000pt" viewBox="0 0 1024.000000 1024.000000"
 preserveAspectRatio="xMidYMid meet">

<g transform="translate(0.000000,1024.000000) scale(0.100000,-0.100000)"
fill="#000000" stroke="none">
<path d="M0 5120 l0 -5120 5120 0 5120 0 0 5120 0 5120 -5120 0 -5120 0 0
-5120z m4792 2611 c1159 -269 1668 -396 1739 -431 60 -31 163 -134 155 -156
-3 -7 1 -15 8 -17 37 -15 46 -197 16 -312 -10 -38 -17 -54 -16 -35 2 19 9 57
16 83 16 59 9 205 -10 217 -7 4 -10 15 -7 24 4 9 2 16 -3 16 -10 0 -14 -18
-12 -60 l2 -25 -11 25 c-5 13 -7 35 -4 47 3 13 2 23 -3 23 -4 0 -9 -10 -9 -22
-1 -13 -5 -34 -8 -47 -6 -24 -18 -25 -70 -7 -13 5 -12 2 5 -8 14 -8 33 -15 43
-16 9 0 17 -4 17 -9 0 -5 -8 -11 -17 -14 -10 -4 -28 -14 -40 -23 -21 -15 -23
-15 -23 0 0 9 -4 16 -9 16 -13 0 -21 -27 -21 -71 0 -50 27 -55 33 -6 4 28 4
27 3 -5 -1 -25 3 -38 11 -38 8 0 13 -14 13 -40 0 -32 -4 -40 -18 -40 -23 0
-68 50 -63 70 2 12 0 13 -10 3 -10 -10 -7 -19 16 -43 35 -36 24 -40 -17 -5
-43 37 -46 37 -793 200 -115 25 -331 75 -480 110 -148 35 -360 85 -470 110
-110 26 -246 57 -303 71 -119 29 -159 25 -202 -17 -25 -25 -35 -57 -85 -263
l-57 -235 -68 -35 c-37 -20 -72 -36 -78 -36 -5 0 -1 35 10 83 10 45 48 217 84
382 77 359 94 411 153 478 125 138 205 146 583 58z m1831 -871 c-3 -11 -9 -20
-14 -20 -14 0 -11 28 4 33 6 3 13 6 14 6 0 1 -1 -8 -4 -19z m37 -17 c-11 -17
-11 -17 -6 0 3 10 6 24 7 30 0 9 2 9 5 0 3 -7 0 -20 -6 -30z m-101 -108 l-1
-40 -12 45 c-13 47 -10 72 5 49 5 -8 8 -32 8 -54z m98 13 c-3 -7 -5 -2 -5 12
0 14 2 19 5 13 2 -7 2 -19 0 -25z m30 -30 c-3 -8 -6 -5 -6 6 -1 11 2 17 5 13
3 -3 4 -12 1 -19z m-140 -50 c-3 -8 -6 -5 -6 6 -1 11 2 17 5 13 3 -3 4 -12 1
-19z m-26 -126 c-13 -49 -19 -91 -15 -110 4 -21 3 -32 -5 -32 -16 0 -14 -25 4
-40 13 -11 15 -6 16 31 1 41 2 42 9 14 7 -28 8 -28 9 -5 l1 25 20 -30 c25 -37
26 -52 3 -34 -16 13 -17 12 -5 -3 8 -9 11 -23 7 -30 -4 -7 0 -5 8 5 32 39 35
56 -67 -381 -36 -155 -66 -285 -66 -288 0 -3 -27 9 -60 27 -33 17 -60 37 -60
43 0 42 210 900 218 892 2 -3 -5 -41 -17 -84z m651 26 c1 -2 4 -255 7 -563 6
-536 7 -559 23 -529 23 41 117 144 132 144 6 -1 -7 -16 -29 -35 -34 -29 -38
-36 -26 -47 8 -7 11 -8 8 -2 -3 6 9 26 28 44 19 18 32 36 30 40 -3 4 2 13 10
20 8 7 15 9 15 4 0 -4 6 0 13 9 20 27 143 67 228 74 207 16 375 -78 440 -244
22 -57 22 -72 31 -623 5 -365 12 -574 19 -592 16 -40 43 -60 101 -73 34 -7 53
-17 53 -26 0 -12 -53 -14 -345 -14 -311 0 -345 2 -348 16 -2 13 8 18 44 24 71
10 100 45 109 126 11 111 0 1059 -13 1100 -21 63 -69 119 -125 145 -65 30
-153 32 -212 5 -73 -33 -143 -129 -171 -236 -17 -63 -20 -998 -4 -1057 13 -47
49 -75 106 -84 48 -7 65 -21 43 -35 -8 -5 -168 -9 -356 -9 -296 0 -343 2 -343
15 0 8 12 17 28 20 80 17 102 27 116 53 21 42 33 1966 12 2015 -19 47 -49 65
-120 74 l-61 7 44 8 c26 4 49 4 56 -2 6 -5 21 -7 33 -3 16 4 22 1 22 -11 0
-10 5 -14 10 -11 6 3 10 1 10 -5 0 -6 4 -9 9 -6 21 13 36 -27 42 -109 2 -27 3
-26 9 10 l7 40 2 -34 c1 -40 6 -38 14 7 5 25 3 32 -9 32 -9 0 -14 6 -11 13 2
6 10 11 16 10 6 -2 11 2 11 7 0 6 -6 10 -13 10 -8 0 -22 10 -33 23 -10 12 -15
19 -10 15 5 -4 16 -2 24 5 13 10 15 9 10 -5 -4 -10 -1 -18 10 -21 20 -5 29 3
61 56 12 20 27 37 32 37 6 0 8 4 4 10 -3 5 -12 7 -20 3 -8 -3 -15 -3 -15 0 0
4 20 15 44 25 24 11 46 24 50 30 3 5 -23 -4 -58 -21 -36 -17 -62 -36 -59 -41
4 -5 1 -6 -5 -2 -7 4 -45 -2 -84 -13 -40 -10 -95 -22 -123 -24 l-50 -6 45 11
c159 35 338 107 415 166 35 27 61 38 67 30z m-3112 -566 l0 -559 23 3 c12 1
26 3 31 3 5 1 1 11 -10 24 -10 12 -12 16 -4 10 21 -19 32 -15 18 6 -10 16 -9
23 6 40 10 11 23 18 28 15 6 -4 5 -10 -3 -16 -11 -8 -11 -9 1 -6 8 3 24 19 35
36 11 17 25 29 32 27 7 -2 10 2 7 10 -3 7 2 15 13 18 16 4 16 5 1 6 -21 1 -72
-45 -64 -58 4 -5 2 -12 -3 -15 -5 -4 -13 -1 -16 5 -10 14 66 91 83 84 7 -2 10
0 7 5 -8 14 121 74 141 66 8 -3 12 -2 9 3 -8 14 97 24 184 18 122 -8 237 -65
291 -144 40 -59 70 -149 80 -244 5 -52 10 -301 10 -554 0 -273 4 -475 10 -496
14 -50 49 -79 106 -87 35 -5 50 -12 52 -25 2 -9 -2 -17 -10 -17 -461 -6 -680
-4 -689 6 -13 15 -5 20 50 29 71 12 98 45 106 136 3 41 5 299 3 574 -3 484 -4
501 -24 545 -53 113 -167 168 -280 135 -78 -22 -126 -70 -177 -174 l-42 -86
-4 -250 c-1 -137 0 -373 4 -523 7 -257 9 -274 29 -305 16 -24 35 -35 74 -46
39 -10 52 -18 50 -30 -3 -14 -40 -16 -342 -17 -280 -1 -339 1 -343 13 -7 19
-3 22 52 32 29 5 57 19 74 35 l26 26 3 968 c2 532 0 982 -3 1001 -4 19 -19 46
-35 61 -23 21 -25 26 -10 25 10 -1 34 -13 54 -29 36 -27 36 -27 36 -5 0 26 15
15 23 -16 4 -19 5 -18 6 2 1 20 8 22 90 28 73 6 94 12 116 31 16 13 32 24 36
24 4 0 10 -26 12 -57 2 -32 4 10 4 94 1 83 4 157 8 162 3 6 13 11 21 11 12 0
14 -79 14 -558z m-73 513 c0 -8 -4 -12 -9 -9 -5 3 -6 10 -3 15 9 13 12 11 12
-6z m-27 -10 c0 -6 -97 -55 -107 -55 -4 1 17 14 47 30 61 32 60 32 60 25z
m2580 -60 c0 -5 -5 -3 -10 5 -5 8 -10 20 -10 25 0 6 5 3 10 -5 5 -8 10 -19 10
-25z m-2708 -2 c-10 -4 -10 -8 0 -21 11 -13 11 -14 -6 -5 -14 7 -31 5 -68 -9
-28 -10 -52 -17 -54 -15 -4 4 115 54 131 55 6 0 4 -2 -3 -5z m58 -17 c0 -2 -7
-6 -15 -10 -8 -3 -15 -1 -15 4 0 6 7 10 15 10 8 0 15 -2 15 -4z m20 -16 c-8
-5 -19 -10 -25 -10 -5 0 -3 5 5 10 8 5 20 10 25 10 6 0 3 -5 -5 -10z m2671
-13 c-10 -9 -11 -8 -5 6 3 10 9 15 12 12 3 -3 0 -11 -7 -18z m-3716 -18 c23
-6 18 -7 -20 -3 -39 4 -47 2 -35 -7 12 -9 11 -10 -5 -4 -11 5 -32 10 -47 12
-34 6 -200 -16 -194 -26 3 -4 -6 -8 -19 -9 -30 -2 -87 -36 -78 -46 4 -4 1 -5
-7 -1 -9 3 -35 -12 -65 -39 -41 -37 -48 -47 -37 -58 11 -11 12 -10 7 3 -4 11
0 18 14 22 12 3 21 1 21 -4 0 -4 9 -13 19 -19 15 -7 23 -6 35 6 9 9 14 20 10
25 -3 5 -2 9 3 8 20 -4 27 2 13 12 -13 9 -13 10 1 6 9 -3 28 3 44 13 18 12 22
19 13 22 -7 3 1 5 19 5 l32 0 -43 -27 c-97 -62 -142 -157 -134 -285 6 -86 31
-144 93 -213 25 -27 42 -51 40 -54 -3 -3 1 -5 8 -5 6 0 44 -23 82 -51 39 -28
138 -90 220 -138 246 -143 313 -190 420 -298 112 -113 165 -202 190 -324 91
-427 -276 -791 -764 -758 -116 8 -193 25 -327 72 -97 34 -103 35 -132 20 -17
-9 -46 -34 -63 -56 -60 -74 -59 -79 -59 339 0 356 4 411 26 388 3 -3 19 -52
35 -109 99 -340 242 -516 472 -574 82 -22 221 -14 297 15 160 62 243 193 226
356 -12 123 -105 252 -259 363 -45 33 -154 102 -242 155 -186 111 -246 154
-334 240 -126 123 -179 235 -188 402 -10 183 33 322 133 434 87 97 216 170
335 190 68 11 205 11 244 0z m3739 -4 c-4 -8 -10 -12 -15 -9 -11 6 -2 24 11
24 5 0 7 -7 4 -15z m-3304 -324 c0 -375 -6 -398 -57 -223 -13 48 -36 113 -49
145 -14 32 -22 63 -18 69 4 6 3 8 -3 5 -6 -4 -15 5 -21 19 -7 13 -30 50 -53
80 -25 34 -34 52 -22 46 22 -12 66 17 54 37 -5 8 -12 3 -20 -15 -6 -15 -14
-24 -17 -21 -3 3 2 17 12 32 l17 26 22 -21 c12 -11 26 -20 33 -20 6 0 9 -8 6
-17 -4 -11 -3 -14 3 -7 4 6 18 15 31 19 15 4 21 12 18 21 -3 9 -1 12 4 9 6 -3
10 -13 10 -21 0 -23 27 -16 34 9 11 41 7 135 -6 140 -8 3 -6 6 5 6 16 1 17
-21 17 -318z m3508 310 c11 -7 10 -9 -3 -14 -10 -5 -14 -3 -9 5 7 11 -4 9 -63
-7 -10 -3 -4 1 12 9 35 18 45 19 63 7z m-3561 -45 c-15 -18 -23 -37 -19 -40 3
-4 -2 -4 -12 0 -11 4 -17 3 -14 -2 11 -18 -77 -9 -102 10 -16 12 -19 16 -7 12
10 -3 36 -9 57 -12 34 -6 42 -2 76 30 49 44 53 45 21 2z m278 24 c-18 -7 -16
-8 10 -12 l30 -5 -32 -2 c-31 -1 -41 7 -26 22 3 4 13 7 22 6 12 0 11 -3 -4 -9z
m-742 -12 c23 0 -1 -4 -53 -8 -52 -4 -104 -11 -115 -15 -15 -6 -17 -5 -9 4 6
7 31 15 55 17 24 3 46 8 48 10 3 3 11 2 19 -1 7 -3 32 -6 55 -7z m271 -13 c11
-8 16 -15 10 -15 -5 0 -18 7 -28 15 -11 8 -16 15 -10 15 5 0 18 -7 28 -15z
m-197 -1 c-3 -3 -12 -4 -19 -1 -8 3 -5 6 6 6 11 1 17 -2 13 -5z m143 -59 c18
-13 36 -22 40 -20 4 2 7 -2 7 -10 0 -16 -4 -14 -61 27 -21 15 -35 28 -29 28 5
0 24 -11 43 -25z m107 -1 c-3 -3 -12 -4 -19 -1 -8 3 -5 6 6 6 11 1 17 -2 13
-5z m123 -4 c-8 -5 -22 -9 -30 -9 -10 0 -8 3 5 9 27 12 43 12 25 0z m2863
-546 c158 -41 250 -119 298 -254 23 -64 23 -74 29 -600 5 -494 6 -538 23 -563
22 -34 54 -47 113 -47 53 0 55 -15 7 -43 -48 -28 -158 -47 -268 -46 -141 1
-189 22 -224 100 -12 24 -21 61 -21 81 l0 37 -67 -67 c-114 -112 -234 -162
-393 -162 -180 0 -289 58 -357 190 -26 51 -28 64 -28 165 0 99 3 116 27 168
35 74 113 156 186 195 32 17 129 58 216 91 197 76 254 108 336 190 76 76 100
135 100 242 0 122 -34 188 -119 232 -46 23 -67 27 -136 27 -98 0 -163 -20
-210 -65 -46 -43 -45 -71 4 -130 63 -77 77 -156 40 -232 -34 -71 -97 -98 -186
-82 -112 21 -179 112 -171 232 11 173 166 293 443 345 85 16 290 14 358 -4z
m-2030 -1834 c33 -12 82 -41 109 -64 151 -123 178 -386 59 -560 -131 -190
-421 -216 -584 -52 -189 192 -133 565 99 667 98 44 215 47 317 9z m3572 15
c52 -9 153 -62 160 -86 6 -18 -38 -89 -55 -89 -4 0 -19 9 -33 20 -43 34 -93
50 -157 50 -94 0 -139 -33 -140 -103 0 -61 35 -88 160 -122 113 -30 185 -61
212 -92 69 -76 62 -241 -13 -310 -52 -47 -117 -67 -219 -66 -101 0 -168 19
-235 64 -57 39 -60 54 -24 100 l32 40 31 -29 c51 -49 94 -65 182 -70 94 -5
139 11 167 57 36 61 12 127 -55 159 -24 11 -83 30 -133 42 -142 35 -196 80
-215 179 -25 133 48 238 181 260 53 9 76 8 154 -4z m-5023 -17 c15 -12 104
-212 213 -481 27 -65 52 -114 56 -110 5 5 27 60 49 123 23 63 76 198 117 299
l76 184 70 -6 c41 -4 74 -12 79 -19 4 -7 7 -180 7 -385 l-2 -371 -31 -4 c-17
-1 -43 -2 -58 0 l-28 3 -2 277 -3 277 -52 -120 c-29 -66 -81 -190 -115 -275
l-63 -155 -45 -3 -45 -3 -29 68 c-63 146 -208 458 -217 468 -5 5 -9 -93 -9
-263 l0 -272 -55 0 -55 0 -2 173 c-2 150 -2 363 1 550 l1 57 63 0 c35 0 70 -6
79 -12z m2383 -12 c81 -35 115 -88 115 -180 0 -66 -12 -102 -48 -139 -26 -28
-27 -29 -7 -40 109 -60 128 -228 38 -328 -54 -60 -99 -69 -333 -69 l-197 0 -6
257 c-9 336 -9 508 1 517 4 4 95 6 202 4 157 -3 203 -7 235 -22z m525 -366 l0
-390 -54 0 -53 0 -8 379 c-4 209 -4 385 0 390 3 6 31 11 61 11 l54 0 0 -390z
m418 48 l2 -338 185 0 185 0 0 -50 0 -50 -212 -2 c-198 -1 -260 0 -265 6 -6 6
-15 746 -10 760 5 14 18 16 59 14 l53 -3 3 -337z m1112 287 l0 -55 -200 0
-200 0 0 -110 0 -110 180 0 180 0 0 -55 0 -55 -180 0 -180 0 0 -120 0 -120
208 -2 207 -3 3 -47 3 -48 -265 0 -266 0 0 390 0 390 255 0 255 0 0 -55z
m-3411 -876 c9 -1 3 -5 -14 -8 -28 -7 -26 -9 35 -28 68 -21 150 -29 150 -14 0
13 -34 24 -38 12 -2 -6 -17 -4 -38 5 -20 8 -45 12 -57 9 -20 -5 -20 -5 -4 6
11 6 31 8 45 5 15 -4 47 -6 70 -6 31 1 42 -2 37 -11 -5 -7 -1 -9 11 -5 11 3
78 6 149 7 l130 2 370 -87 c204 -48 498 -119 655 -157 422 -104 446 -109 500
-109 27 0 60 4 73 9 34 13 67 3 60 -17 -4 -14 -3 -14 5 -3 13 19 4 41 -14 34
-22 -8 -17 5 7 18 13 7 19 7 15 1 -3 -6 3 -13 14 -17 11 -3 21 -11 21 -16 1
-5 3 -13 4 -19 1 -5 3 -13 4 -17 0 -3 10 2 20 11 15 13 20 14 24 4 3 -9 7 -7
13 7 4 11 12 25 16 30 5 6 16 19 24 30 9 11 5 0 -8 -24 -70 -134 -196 -176
-403 -133 -142 30 -598 133 -1175 267 -598 138 -780 190 -780 222 0 3 14 3 31
-1 17 -3 39 -7 48 -7z m2264 -28 c-4 -3 -11 -10 -15 -15 -5 -5 -8 0 -8 12 0
15 4 20 16 15 9 -3 12 -9 7 -12z m-36 -93 c-3 -8 -6 -5 -6 6 -1 11 2 17 5 13
3 -3 4 -12 1 -19z m-12 -68 c-4 -12 -9 -19 -12 -17 -3 3 -2 15 2 27 4 12 9 19
12 17 3 -3 2 -15 -2 -27z m-25 -67 c-11 -17 -11 -17 -6 0 3 10 6 24 7 30 0 9
2 9 5 0 3 -7 0 -20 -6 -30z m121 -24 c-5 -13 -10 -19 -10 -12 -1 15 10 45 15
40 3 -2 0 -15 -5 -28z m-131 -61 c0 -9 4 -8 11 2 9 12 10 11 5 -5 -5 -18 -5
-18 7 -4 10 14 14 14 25 3 10 -11 10 -14 -3 -14 -8 0 -15 -6 -15 -14 0 -8 -5
-18 -12 -22 -6 -4 -8 -3 -5 3 4 6 -3 22 -14 37 -11 14 -16 26 -10 26 6 0 11
-6 11 -12z"/>
<path d="M4827 7520 c-50 -40 -43 -116 14 -145 87 -46 174 71 104 140 -30 31
-82 33 -118 5z"/>
<path d="M5171 7414 c-23 -30 -25 -42 -12 -77 12 -31 37 -40 206 -77 77 -17
185 -42 240 -56 55 -14 110 -22 122 -19 32 8 58 61 44 91 -15 34 -48 51 -121
64 -36 6 -145 31 -242 56 -97 24 -186 44 -197 44 -11 0 -29 -12 -40 -26z"/>
<path d="M6572 7247 c-8 -9 -8 -17 0 -27 8 -13 9 -12 5 1 -3 9 0 22 6 28 6 6
8 11 5 11 -3 0 -10 -6 -16 -13z"/>
<path d="M6647 7162 c1 -8 3 -16 3 -18 0 -3 5 -2 10 1 6 3 10 11 10 16 0 6 -4
8 -9 5 -5 -4 -11 -3 -14 1 -2 5 -2 2 0 -5z"/>
<path d="M6530 6865 c-11 -13 -10 -14 4 -9 12 4 15 2 10 -9 -3 -8 -2 -17 3
-20 4 -3 8 8 8 24 1 32 -6 36 -25 14z"/>
<path d="M6491 6424 c0 -11 3 -14 6 -6 3 7 2 16 -1 19 -3 4 -6 -2 -5 -13z"/>
<path d="M7109 6513 c-13 -17 -13 -17 5 -3 18 14 19 13 13 -2 -3 -10 -2 -18 3
-18 6 0 10 9 10 20 0 25 -13 26 -31 3z"/>
<path d="M7071 6490 c-9 -5 -4 -7 13 -7 29 0 32 2 13 10 -8 3 -20 2 -26 -3z"/>
<path d="M7426 5658 c3 -4 11 -5 19 -1 21 7 19 12 -4 10 -11 0 -18 -5 -15 -9z"/>
<path d="M6841 4893 c1 -202 2 -225 14 -198 8 17 14 24 15 18 0 -9 7 -10 26
-3 14 6 36 10 49 10 14 0 45 7 71 16 26 9 62 17 80 19 27 2 34 -1 37 -19 2
-11 5 17 6 64 1 47 4 138 8 203 l6 117 -157 0 -156 0 1 -227z"/>
<path d="M7750 4897 c0 -123 3 -227 7 -230 3 -4 12 -2 19 4 7 5 41 13 76 15
35 3 89 9 120 13 36 5 61 4 68 -3 7 -7 10 58 10 207 l0 217 -150 0 -150 0 0
-223z"/>
<path d="M3725 6240 c3 -5 8 -10 11 -10 2 0 4 5 4 10 0 6 -5 10 -11 10 -5 0
-7 -4 -4 -10z"/>
<path d="M4345 5683 c-18 -5 -96 -53 -85 -53 3 0 32 14 65 30 58 29 62 33 20
23z"/>
<path d="M3729 5088 c-3 -23 -2 -135 1 -248 4 -113 7 -193 8 -177 1 15 5 26
10 26 4 -1 9 0 12 1 3 1 12 3 20 5 21 5 147 50 193 69 28 13 37 13 38 4 1 -7
5 -2 9 12 7 22 14 339 8 341 -2 0 -69 3 -149 6 l-146 5 -4 -44z"/>
<path d="M4621 4883 c1 -136 4 -237 8 -223 6 21 16 27 61 36 30 7 75 19 100
27 72 25 118 29 123 9 3 -9 4 75 3 188 l-1 205 -147 3 -148 4 1 -249z"/>
<path d="M2380 6195 c0 -8 -7 -15 -15 -15 -8 0 -15 -4 -15 -9 0 -17 38 1 43
20 3 10 1 19 -4 19 -5 0 -9 -7 -9 -15z"/>
<path d="M2325 6190 c-3 -5 -1 -10 4 -10 6 0 11 5 11 10 0 6 -2 10 -4 10 -3 0
-8 -4 -11 -10z"/>
<path d="M2169 5825 c-4 -27 -7 -68 -8 -90 0 -32 2 -36 10 -23 5 10 9 50 7 90
-3 72 -3 72 -9 23z"/>
<path d="M2181 5684 c0 -11 3 -14 6 -6 3 7 2 16 -1 19 -3 4 -6 -2 -5 -13z"/>
<path d="M2734 5118 c10 -7 71 -48 135 -90 155 -102 252 -197 297 -291 19 -39
34 -77 34 -84 0 -10 6 -10 25 3 13 8 28 13 33 10 8 -5 68 7 102 21 8 3 21 5
28 4 6 -1 12 3 12 9 0 7 8 9 21 5 21 -7 21 -5 17 96 -5 112 -22 168 -78 267
l-30 52 -163 0 c-89 0 -227 2 -307 5 -120 5 -142 4 -126 -7z"/>
<path d="M3110 6175 c-19 -22 -8 -25 13 -3 9 10 13 18 8 18 -5 0 -14 -7 -21
-15z"/>
<path d="M6032 5140 c-38 -46 -159 -131 -230 -161 -26 -12 -100 -40 -164 -64
-211 -78 -321 -154 -372 -257 -27 -55 -33 -84 -15 -72 6 3 16 0 21 -7 7 -10 9
-8 5 8 -3 13 0 20 7 18 6 -2 56 -6 111 -10 55 -3 104 -10 109 -15 6 -6 19 13
34 53 48 118 99 175 270 294 57 39 97 62 103 56 5 -5 -27 -34 -81 -73 -123
-86 -221 -191 -250 -266 -29 -75 -32 -191 -6 -249 35 -81 104 -126 191 -126
69 0 128 26 182 80 65 65 93 131 103 247 12 126 18 524 7 517 -8 -5 -2 41 8
57 13 21 -1 8 -33 -30z m-33 -101 c-63 -60 -73 -66 -84 -50 -3 6 14 23 37 39
24 17 54 41 67 56 13 14 28 23 33 20 5 -3 -19 -32 -53 -65z"/>
<path d="M6118 5123 l-38 -4 1 -202 c0 -205 8 -299 22 -264 4 10 11 15 17 12
5 -3 10 -1 10 6 0 7 3 10 6 6 6 -6 85 20 154 51 24 11 48 18 52 16 4 -3 8 0 8
7 0 21 18 -3 23 -31 2 -14 5 73 6 193 l1 217 -112 -2 c-62 -1 -130 -3 -150 -5z"/>
<path d="M3805 3762 c-53 -26 -99 -75 -127 -137 -18 -40 -22 -68 -23 -140 0
-138 40 -212 145 -267 61 -31 176 -32 235 -1 94 49 147 143 149 258 2 126 -41
215 -129 270 -42 26 -59 30 -129 33 -63 2 -90 -2 -121 -16z"/>
<path d="M4677 3763 c-4 -3 -7 -53 -7 -110 l0 -103 123 0 c147 0 179 13 197
80 9 35 8 47 -7 78 -10 20 -29 42 -43 49 -26 13 -251 19 -263 6z"/>
<path d="M4693 3443 c-22 -4 -23 -8 -23 -124 l0 -119 128 1 c140 0 185 11 214
50 39 52 16 159 -40 180 -27 11 -236 19 -279 12z"/>
<path d="M5728 2563 c7 -3 16 -2 19 1 4 3 -2 6 -13 5 -11 0 -14 -3 -6 -6z"/>
<path d="M5638 2463 c7 -3 16 -2 19 1 4 3 -2 6 -13 5 -11 0 -14 -3 -6 -6z"/>
</g>
</svg>
