<?xml version="1.0" standalone="no"?>
<!DOCTYPE svg PUBLIC "-//W3C//DTD SVG 20010904//EN"
 "http://www.w3.org/TR/2001/REC-SVG-20010904/DTD/svg10.dtd">
<svg version="1.0" xmlns="http://www.w3.org/2000/svg"
 width="1024.000000pt" height="1024.000000pt" viewBox="0 0 1024.000000 1024.000000"
 preserveAspectRatio="xMidYMid meet">

<g transform="translate(0.000000,1024.000000) scale(0.100000,-0.100000)"
fill="#000000" stroke="none">
<path d="M4523 7890 c-75 -45 -85 -165 -19 -219 12 -10 16 -33 16 -96 l0 -83
-172 -4 c-152 -3 -179 -7 -221 -26 -71 -32 -149 -111 -183 -185 l-29 -62 -3
-561 c-3 -620 0 -657 57 -757 49 -86 114 -137 366 -292 132 -81 386 -238 565
-348 179 -109 337 -211 352 -224 40 -37 52 -74 41 -125 -13 -63 -1 -108 41
-144 30 -26 36 -38 36 -71 0 -28 -6 -46 -23 -61 -23 -22 -27 -22 -406 -22
-401 0 -428 3 -445 45 -3 9 -6 153 -6 321 l0 304 -37 23 c-21 13 -44 27 -51
31 -10 6 -12 -91 -11 -496 0 -277 5 -531 9 -566 11 -77 44 -126 106 -154 41
-18 70 -19 583 -16 l539 3 43 30 c24 17 52 46 64 65 20 34 20 47 18 555 -3
516 -3 519 -25 565 -21 42 -40 55 -252 187 -127 79 -233 144 -238 145 -4 2
-15 40 -24 86 -13 64 -22 85 -38 94 -48 25 -66 50 -66 96 0 82 75 126 150 87
53 -27 60 -106 14 -156 -13 -15 -13 -25 3 -87 l18 -71 210 -132 c228 -142 256
-164 288 -224 22 -39 22 -49 25 -573 3 -503 2 -535 -16 -575 -28 -62 -70 -107
-127 -134 l-50 -24 155 3 c153 3 157 4 222 36 77 38 130 92 167 171 l26 56 3
499 c2 323 -1 517 -8 550 -16 77 -54 150 -107 207 -63 68 -123 108 -1043 680
-246 153 -397 253 -417 277 -34 38 -63 108 -63 149 0 36 28 83 56 93 15 6 222
10 499 10 l474 0 28 -24 28 -24 3 -334 3 -334 44 -27 45 -27 0 428 c0 393 -2
430 -19 467 -22 48 -44 69 -94 90 -31 13 -101 15 -452 15 l-415 0 0 168 c0
168 0 169 -24 181 -70 38 -53 154 27 180 101 34 173 -94 97 -171 l-30 -30 0
-128 0 -129 408 -3 409 -3 49 -30 c30 -19 60 -49 79 -79 l30 -49 3 -479 c3
-463 3 -478 22 -488 19 -10 20 -7 20 82 0 82 2 95 20 106 18 11 20 23 20 128
0 107 -1 116 -20 121 -18 5 -20 14 -20 85 0 61 3 77 13 71 6 -4 83 -51 170
-105 87 -54 161 -98 163 -98 2 0 4 191 4 424 0 396 -1 428 -20 487 -25 80 -77
151 -138 190 -92 58 -101 59 -627 59 l-481 0 -34 35 c-61 63 -142 66 -202 8
l-28 -27 0 72 c0 62 3 74 25 98 55 59 51 146 -9 202 -30 27 -43 32 -83 32 -30
0 -60 -7 -80 -20z m139 -47 c42 -45 41 -101 -2 -145 l-30 -30 0 -334 0 -334
-35 0 -35 0 0 336 0 336 -30 28 c-40 37 -42 95 -4 139 21 26 33 31 68 31 33 0
48 -6 68 -27z m-172 -808 c0 -30 -5 -37 -33 -49 -43 -17 -84 -67 -97 -117 -7
-27 -10 -163 -8 -397 3 -386 3 -386 60 -439 13 -12 91 -64 173 -116 83 -51
249 -156 370 -232 121 -76 306 -192 410 -257 105 -65 204 -134 221 -153 57
-64 64 -107 64 -396 l0 -259 -35 0 -35 0 0 253 c0 142 -5 268 -10 289 -15 51
-48 88 -122 133 -35 21 -205 127 -378 235 -776 485 -723 448 -762 534 -23 50
-23 55 -23 431 0 375 0 381 23 430 13 27 33 61 45 74 20 21 110 71 130 71 4 0
7 -16 7 -35z m840 -130 c6 -8 10 -22 8 -32 -3 -17 -22 -18 -293 -18 l-290 0 0
25 c0 24 4 25 70 31 39 3 165 6 281 7 174 2 214 -1 224 -13z m-599 -554 c20
-20 29 -40 29 -61 0 -37 -23 -85 -45 -94 -13 -4 -15 -18 -13 -63 l3 -58 220
-140 220 -140 3 -42 3 -42 -200 127 c-110 70 -227 144 -261 165 l-60 37 0 69
c0 66 -2 71 -35 104 -39 39 -44 70 -20 117 19 37 41 49 88 50 29 0 45 -7 68
-29z m95 -713 c25 -12 44 -48 44 -83 0 -22 85 -81 463 -318 45 -29 47 -32 47
-77 0 -70 43 -194 68 -198 11 -2 32 -15 46 -29 52 -51 23 -145 -48 -159 -38
-7 -89 15 -106 45 -16 31 -12 87 8 111 18 22 18 24 -4 79 -13 31 -26 79 -30
108 l-6 52 -92 59 c-50 33 -158 101 -239 151 -131 81 -152 91 -175 83 -94 -32
-171 81 -107 157 35 41 75 47 131 19z m319 -1159 c41 -24 65 -69 65 -119 0
-133 -151 -198 -245 -105 -79 79 -47 202 62 240 42 15 74 11 118 -16z"/>
<path d="M4632 6308 c-33 -33 17 -88 53 -58 25 21 15 64 -15 68 -14 2 -31 -3
-38 -10z"/>
<path d="M4748 5589 c-24 -14 -23 -56 2 -69 42 -22 82 34 48 68 -14 14 -27 15
-50 1z"/>
<path d="M5391 4891 c-20 -36 13 -70 53 -55 12 5 16 16 14 38 -2 25 -8 32 -30
34 -18 2 -30 -3 -37 -17z"/>
<path d="M4769 7461 c-26 -21 -19 -56 13 -67 30 -9 64 27 49 54 -15 29 -37 33
-62 13z"/>
<path d="M5172 5953 c-16 -31 4 -63 41 -63 25 0 44 45 27 65 -17 20 -57 19
-68 -2z"/>
<path d="M3910 4737 c0 -222 4 -376 11 -409 26 -126 109 -224 224 -267 48 -18
78 -21 208 -21 l152 0 -50 29 c-27 16 -60 43 -73 60 -49 66 -52 94 -52 406 l0
293 -187 118 c-104 64 -198 124 -210 132 l-23 14 0 -355z"/>
<path d="M3722 3603 c-118 -28 -193 -130 -178 -242 14 -99 67 -139 245 -183
91 -22 121 -34 139 -54 28 -32 28 -46 -2 -81 -24 -27 -27 -28 -123 -28 -90 0
-104 3 -162 31 -71 35 -60 41 -92 -49 -16 -46 -10 -53 80 -89 47 -18 76 -22
176 -23 104 0 126 3 170 23 63 29 93 57 116 107 39 83 13 182 -59 229 -20 14
-73 35 -117 47 -177 48 -189 53 -204 80 -19 34 -8 72 26 95 41 27 159 25 236
-5 32 -13 60 -21 62 -19 2 1 12 29 23 61 l21 57 -31 16 c-41 21 -153 44 -213
43 -27 0 -79 -8 -113 -16z"/>
<path d="M4320 3250 l0 -360 80 0 80 0 0 150 0 150 160 0 160 0 0 -150 0 -151
83 3 82 3 0 355 -1 355 -82 3 -82 3 0 -141 0 -140 -160 0 -160 0 0 140 0 140
-80 0 -80 0 0 -360z"/>
<path d="M5310 3259 c-85 -193 -157 -355 -158 -361 -2 -5 31 -8 79 -6 l83 3
46 116 c73 184 183 420 191 412 4 -4 30 -63 57 -130 l51 -122 -86 -3 -85 -3
-19 -60 c-10 -33 -19 -62 -19 -65 0 -3 60 -4 133 -2 l134 3 29 -75 29 -76 83
0 c82 0 83 0 76 22 -4 13 -63 147 -131 298 -68 151 -136 303 -151 337 l-27 62
-80 1 -80 0 -155 -351z"/>
<path d="M6128 3275 c-1 -184 -2 -345 -2 -357 -1 -22 3 -23 78 -23 l78 0 -1
148 -2 147 166 0 165 0 0 -150 0 -150 80 0 80 0 0 360 0 360 -80 0 -80 0 0
-140 0 -140 -160 0 -160 0 0 88 c0 48 -3 111 -6 140 l-7 52 -73 0 -74 0 -2
-335z"/>
<path d="M2907 3583 c-11 -10 -8 -58 4 -70 6 -6 9 -21 7 -34 -3 -22 -9 -24
-68 -29 -134 -11 -140 -25 -140 -302 0 -192 2 -216 19 -245 23 -37 51 -56 284
-197 l177 -108 0 -38 c0 -21 7 -43 15 -50 22 -18 18 -39 -7 -49 -32 -11 -271
-1 -280 13 -4 6 -8 57 -8 113 0 87 -3 104 -17 112 -17 9 -18 -3 -13 -191 5
-183 7 -201 24 -214 16 -11 63 -14 217 -14 l198 0 20 26 c19 25 21 40 21 198
0 141 -3 176 -16 194 -9 13 -54 48 -100 77 -67 44 -84 59 -84 79 0 13 -7 29
-15 36 -31 26 -8 78 27 59 14 -7 18 -21 18 -59 l0 -50 62 -37 c34 -21 77 -52
95 -70 l33 -31 0 -184 c0 -196 -6 -223 -50 -245 -23 -12 -20 -13 33 -13 32 0
71 7 87 15 57 30 60 41 60 253 0 217 -8 247 -72 288 -86 56 -164 104 -293 182
-193 116 -205 126 -205 166 0 26 5 35 23 40 36 10 304 7 331 -4 26 -9 26 -10
26 -129 0 -99 3 -120 16 -125 9 -3 16 -6 17 -6 1 0 1 66 -1 147 -4 201 4 193
-199 193 l-153 0 0 55 c0 30 -5 64 -12 74 -23 37 19 78 50 48 13 -13 13 -21 4
-42 -7 -14 -12 -44 -12 -65 l0 -40 135 0 c213 0 221 -9 212 -236 -2 -79 -1
-146 3 -149 4 -3 10 10 13 28 3 17 9 45 13 60 4 17 2 38 -6 51 -6 13 -10 33
-8 45 3 21 5 20 55 -14 29 -19 55 -35 58 -35 3 0 5 70 5 155 l0 155 -34 38
-34 37 -190 5 c-140 4 -193 9 -206 19 -10 8 -27 11 -46 7 -34 -6 -36 0 -18 50
9 26 9 36 -1 48 -13 16 -62 22 -74 9z m64 -19 c10 -12 10 -20 2 -34 -7 -9 -12
-46 -13 -81 -5 -190 -30 -234 -30 -54 0 70 -5 123 -12 134 -24 40 23 71 53 35z
m-79 -293 l-32 -30 0 -128 c0 -98 4 -134 15 -150 8 -12 105 -76 215 -143 110
-67 207 -131 215 -143 22 -31 22 -217 0 -217 -12 0 -15 18 -15 98 0 89 -2 100
-22 119 -13 11 -104 69 -203 128 -99 59 -190 118 -202 132 -22 23 -23 33 -23
169 0 162 10 194 58 194 l26 0 -32 -29z m313 -32 c-8 -12 -205 -12 -205 1 0 8
184 19 203 12 4 -2 5 -8 2 -13z m-211 -178 c14 -15 15 -24 7 -40 -20 -37 -13
-55 33 -79 55 -29 113 -78 104 -87 -3 -4 -45 17 -92 46 -66 40 -86 57 -86 74
0 13 -7 28 -15 35 -19 16 -19 29 2 52 20 23 26 23 47 -1z m39 -264 c8 -13 54
-47 101 -76 81 -49 86 -55 86 -87 0 -25 6 -38 25 -50 30 -20 32 -49 4 -64 -26
-15 -52 4 -43 32 3 10 3 37 -1 58 -6 36 -14 45 -89 95 -49 32 -94 55 -110 55
-28 0 -42 20 -32 45 8 23 42 18 59 -8z m112 -393 c43 -43 -19 -110 -65 -69
-24 22 -25 42 -3 67 20 22 46 23 68 2z"/>
<path d="M2955 3041 c-7 -12 12 -24 25 -16 11 7 4 25 -10 25 -5 0 -11 -4 -15
-9z"/>
<path d="M2990 2785 c0 -8 5 -15 10 -15 6 0 10 7 10 15 0 8 -4 15 -10 15 -5 0
-10 -7 -10 -15z"/>
<path d="M3222 2549 c2 -6 8 -10 13 -10 5 0 11 4 13 10 2 6 -4 11 -13 11 -9 0
-15 -5 -13 -11z"/>
<path d="M3006 3443 c-11 -11 -6 -23 9 -23 8 0 15 4 15 9 0 13 -16 22 -24 14z"/>
<path d="M3150 2920 c0 -5 7 -10 15 -10 8 0 15 5 15 10 0 6 -7 10 -15 10 -8 0
-15 -4 -15 -10z"/>
<path d="M4270 2545 c0 -136 1 -145 19 -145 25 0 35 57 26 134 -4 31 -5 56 -2
56 3 0 27 -36 54 -80 26 -44 52 -79 58 -77 5 2 31 39 58 82 l47 78 0 -96 c0
-97 0 -97 25 -97 l25 0 0 145 c0 144 0 145 -22 145 -18 0 -31 -16 -61 -73 -21
-39 -46 -83 -56 -96 l-18 -24 -57 96 c-41 70 -63 97 -77 97 -18 0 -19 -8 -19
-145z"/>
<path d="M4870 2672 c-97 -49 -97 -201 0 -253 66 -36 163 -14 200 46 27 43 27
117 0 160 -38 61 -129 83 -200 47z m141 -51 c23 -23 29 -38 29 -71 0 -52 -13
-76 -52 -96 -68 -35 -143 13 -143 93 0 38 5 49 33 74 44 40 93 40 133 0z"/>
<path d="M5310 2544 l0 -146 100 4 c86 3 103 7 122 25 29 30 28 80 -2 105 -21
17 -22 20 -6 36 9 10 16 29 16 41 0 59 -43 81 -156 81 l-74 0 0 -146z m170 92
c6 -8 10 -25 8 -38 -2 -19 -11 -24 -55 -32 -71 -12 -83 -5 -83 44 l0 40 59 0
c39 0 63 -5 71 -14z m14 -128 c20 -28 20 -33 0 -52 -11 -11 -35 -16 -80 -16
l-64 0 0 45 0 45 64 0 c56 0 67 -3 80 -22z"/>
<path d="M5777 2683 c-4 -3 -7 -69 -7 -145 l0 -138 25 0 25 0 0 145 c0 134 -1
145 -18 145 -10 0 -22 -3 -25 -7z"/>
<path d="M6060 2545 l0 -145 100 0 c93 0 100 1 100 20 0 18 -7 20 -80 20 l-80
0 0 125 c0 118 -1 125 -20 125 -19 0 -20 -7 -20 -145z"/>
<path d="M6454 2677 c-3 -8 -4 -72 -2 -143 l3 -129 101 -3 c94 -2 102 -1 107
18 5 18 -1 19 -77 22 l-81 3 0 40 0 40 68 3 c59 3 67 5 67 22 0 18 -7 20 -70
20 l-70 0 0 40 0 40 78 -3 c71 -2 77 0 77 18 0 18 -8 20 -98 23 -75 2 -99 0
-103 -11z"/>
<path d="M2710 2485 c0 -151 9 -184 60 -210 16 -8 54 -15 86 -15 l56 0 -23 19
c-22 18 -24 28 -29 137 l-5 119 -65 42 c-36 24 -68 43 -72 43 -5 0 -8 -61 -8
-135z"/>
</g>
</svg>
